#!OML:ASF E:/inclinewalkrobotboard/Project1/Captureday1/Session1/subject1.ASF
:FULLY-SPECIFIED
:DEGREES
151
root 0 0 0 -3.530685188627069 -5.7080698437150215 -2.092222324244788
lowerback 9.853771159104552 1.9477754174273652 1.6936818041635622
upperback -0.03612101730134484 2.843779051833673 0.9688697428500606
thorax -5.51512594628778 1.3805492271067932 -0.33898375357877475
lowerneck -16.563286519872708 -3.0136631331334534 -1.6544971025086364
upperneck 21.279170601520736 -3.9139737512345545 0.742439887327643
head 9.500292477608935 -1.8564571193771588 0.005131490426634744
rclavicle -3.971502067428145E-15 -2.225145336901705E-15
rhumerus -32.77542359688372 -20.63260848980217 -78.9953515648549
rradius 21.079372030667095
rwrist 6.228929166686307
rhand -18.079450902488297 26.087303026372467
rfingers 7.1250200000000214
rthumb 8.189351171745379 -3.730780994297362
lclavicle -4.3883552573670405E-15 -2.750522434066005E-15
lhumerus -39.037365581905874 8.58431249364537 79.69020171060464
lradius 21.18818479540265
lwrist 2.1703290758916705
lhand -26.214945315815818 23.93280183517229
lfingers 7.1250200000000214
lthumb 0.3311127176746842 53.89581500766174
rfemur -10.172963582577525 2.422640718599157 25.86131750549923
rtibia 66.1691120574723
rfoot 9.417064861201016 -1.8020469720869972
rtoes 13.163474010939366
lfemur -21.33402551877253 -2.0063000698067444 -17.844006113211236
ltibia 23.489530770662206
lfoot -5.851369004383658 -0.12332338675635102
ltoes 3.3360527687781136
152
root 0 0 0 -4.1360217825212 -5.3664628318263015 -0.2731976737672279
lowerback 9.560316138605476 1.5333140704462414 -0.25289980122548994
upperback -0.16504372393175537 2.0432569335577666 0.6863351953217958
thorax -5.532180567384766 1.0296606626221219 0.5859484970234065
lowerneck -16.45800322993552 -2.612224776803055 -1.5241148762166075
upperneck 23.463104542861334 -3.459157089675676 0.6362265948504245
head 10.304698885633277 -1.6037044998037273 -0.008670946277815283
rclavicle -3.672665181794217E-15 2.1416489477578346E-18
rhumerus -33.84546277380474 -22.08172725342321 -78.51437996694045
rradius 19.812304585017046
rwrist 7.01544956967552
rhand -17.91652802800996 25.89087795067863
rfingers 7.125020000000022
rthumb 8.345587096217223 -3.9053939958097246
lclavicle -3.926471126090543E-15 -9.053937771640975E-16
lhumerus -38.641327417614654 8.452408766409103 79.60520209610247
lradius 21.2805900172022
lwrist 2.268678335839659
lhand -26.39109612956885 23.609381539882374
lfingers 7.125020000000021
lthumb 0.15799441304720485 53.57613012899504
rfemur -12.912368029557598 1.9194207688284002 26.712589401469113
rtibia 70.80065098253527
rfoot 7.330858246248106 -3.0879237571276934
rtoes 15.636740990766633
lfemur -12.11110851635266 -2.584941013042964 -23.03758589061231
ltibia 22.224399827699447
lfoot -8.285019083755326 -1.0404489244373694
ltoes 8.221915055842125
153
root 0 0 0 -4.59051853647243 -4.761769427177395 0.5446215874979083
lowerback 11.026891367544223 0.9149919098817717 -1.3273256393990323
upperback 0.027280598436040304 1.101116017566091 0.6640752320230681
thorax -6.190098324671804 0.5850861364178069 1.2945450706818624
lowerneck -17.058208793437935 -2.6422373613334615 -1.6321361500267901
upperneck 19.71408169363437 -3.3520945552446837 0.36752100583035974
head 9.167750979274977 -1.6253516041133296 -0.03693269265994825
rclavicle -3.1821921098509693E-15 1.1586959085928157E-15
rhumerus -34.21931896215995 -22.54237463501395 -78.48650632057621
rradius 19.334653410810837
rwrist 7.475175449119356
rhand -17.828113205744117 25.876327204307955
rfingers 7.125020000000022
rthumb 8.431192039099068 -3.906412226944795
lclavicle -3.0634559138484586E-15 5.543640352171386E-16
lhumerus -37.77828694817079 7.888763419006556 79.5967309418655
lradius 21.681995216841987
lwrist 2.354591888182424
lhand -26.477250264438624 23.60222042216366
lfingers 7.12502000000002
lthumb 0.07339902003772103 53.57244555270652
rfemur -15.387882259186213 1.1548558124103177 25.778402365684443
rtibia 69.44513506990745
rfoot 3.243499211961076 -3.53871686042451
rtoes 13.778347377162394
lfemur -1.892531209879313 -3.3957490727304407 -26.40880689231475
ltibia 20.804479612280684
lfoot -13.729352717374566 -0.031039176035711158
ltoes 3.2033989401970153
154
root 0 0 0 -4.432464957783177 -3.233080022955712 1.4478388927557613
lowerback 11.110600962643218 7.129926854398949E-4 -2.5579961156560804
upperback 0.16594412272505288 -0.26346959101180234 0.8064811100799287
thorax -6.11127334040538 -0.05680413044599686 2.334381844799325
lowerneck -17.730700970084662 -2.5279110799598774 -2.0735468524070844
upperneck 18.22973072721126 -3.0589601787652185 0.2398719393769133
head 8.719632078163935 -1.5425836784089086 0.03920116298489734
rclavicle -2.3861484129164304E-15 4.751159079173295E-16
rhumerus -34.234057277502906 -22.59127284575697 -78.46863157802049
rradius 19.425180936007607
rwrist 7.479990485884032
rhand -17.862656536201012 25.806224726886846
rfingers 7.125020000000024
rthumb 8.3991313282849 -3.996238339885366
lclavicle -2.2904038349859567E-15 2.2353816426105714E-16
lhumerus -35.46558630796162 5.828469359555723 79.50635415265756
lradius 23.58183021528571
lwrist 3.1397625375754084
lhand -26.705129960633574 24.029739654331923
lfingers 7.125020000000017
lthumb -0.1484547215035752 53.99394731406098
rfemur -29.995321551525294 -0.3896818706213705 20.981627916107314
rtibia 62.67468584790801
rfoot -5.155248278195863 -7.0612287484781024
rtoes 4.867624814600783
lfemur 4.8054691874937 -3.484837191622091 -28.40971104653401
ltibia 20.255306033365677
lfoot -17.927541206122857 0.8306368331389371
ltoes -1.561545607439065
155
root 0 0 0 -3.506832141576037 -2.2133000290325833 1.9083860431585546
lowerback 10.644255235711727 -0.503845639435606 -3.231273762503008
upperback 0.43243955984492344 -1.0087953989495573 0.9775333935032138
thorax -5.524231778306329 -0.4079669642530701 2.996513645514182
lowerneck -17.058528803202712 -2.379631803977158 -2.126470131350769
upperneck 18.666053723675155 -2.809313442373843 0.22483398931625986
head 8.685292756629876 -1.4350033748148974 0.07671700305562007
rclavicle -1.8102123320986578E-15 -3.836659419839636E-16
rhumerus -34.37100220042551 -22.368925648725863 -78.59337092933784
rradius 19.653795931039816
rwrist 7.404038378210243
rhand -17.930625615623274 25.793051333647014
rfingers 7.125020000000024
rthumb 8.332465890944462 -4.019583116369212
lclavicle -1.5450975796337984E-15 -8.845029071674396E-16
lhumerus -32.22719410063802 2.446056458400995 79.3959216051511
lradius 26.85038922505092
lwrist 4.803419193152051
lhand -27.15502146864025 24.808961723809766
lfingers 7.125020000000009
lthumb -0.5825629866341577 54.7809403551033
rfemur -34.58924066932679 -0.209802308511291 18.83206645779642
rtibia 54.993528495206384
rfoot -6.92240817244756 -8.87942726956042
rtoes 1.3170635078966098
lfemur 5.925777432781374 -3.1446348407356948 -28.91186399297701
ltibia 20.20599137245074
lfoot -18.657288610540224 0.8606893080905667
ltoes -1.4209737316258781
